<?xml version="1.0" standalone="no"?>
<!DOCTYPE svg PUBLIC "-//W3C//DTD SVG 20010904//EN"
 "http://www.w3.org/TR/2001/REC-SVG-20010904/DTD/svg10.dtd">
<svg version="1.0" xmlns="http://www.w3.org/2000/svg"
 width="300.000000pt" height="278.000000pt" viewBox="0 0 300.000000 278.000000"
 preserveAspectRatio="xMidYMid meet">
<g transform="translate(0.000000,278.000000) scale(0.100000,-0.100000)"
 stroke="none">
<path d="M2833 2707 c-525 -320 -1109 -855 -1639 -1503 -101 -124 -311 -399
-349 -457 -11 -17 -25 -27 -34 -24 -9 2 -184 99 -390 215 l-373 211 -19 -22
c-10 -12 -18 -26 -18 -32 0 -5 211 -253 468 -550 309 -358 474 -541 488 -543
19 -3 30 12 74 100 271 542 579 1046 893 1463 248 329 462 572 792 901 253
251 262 262 248 283 -8 11 -21 21 -27 21 -7 0 -58 -28 -114 -63z"/>
</g>
</svg>
